<svg width="1206" height="302" viewBox="0 0 1206 302" fill="none" xmlns="http://www.w3.org/2000/svg">
<path d="M89.3785 177.291C89.3785 177.291 90.9195 124.963 59.1746 106.609C59.1746 106.609 43.7644 141.364 60.4074 153.861C77.0504 166.747 79.516 167.919 89.3785 177.291Z" fill="#262626"/>
<path d="M308.82 204.627C308.82 204.627 306.046 170.652 279.232 143.707C252.418 116.762 260.124 59.3574 299.574 59.7479C299.574 59.7479 276.458 81.6164 300.498 105.437C324.538 129.649 333.784 160.89 308.82 204.627Z" fill="#262626"/>
<path d="M832.149 159.027L822.903 240.643L362.139 357.796V407H0V311.325L1.23281 263.683C1.23281 263.683 23.1153 310.544 53.011 271.493C82.9067 232.443 53.011 186.362 53.011 186.362C53.011 186.362 93.6938 197.297 97.7005 251.968C101.707 306.639 147.013 264.464 128.521 217.603C110.029 170.742 122.357 135.596 150.711 109.432C150.711 109.432 149.17 162.151 181.532 150.436C215.126 138.33 188.62 81.7061 188.62 81.7061C188.62 81.7061 231.769 84.4397 233.31 135.596C234.851 187.144 247.796 198.468 258.583 194.563C269.37 190.268 265.363 166.837 265.363 166.837C265.363 166.837 315.6 200.811 272.144 259.778C228.379 319.136 322.689 315.621 309.128 230.49C309.128 230.49 318.066 225.804 336.25 260.559C345.496 279.304 370.46 292.581 384.33 268.369C393.268 253.14 393.576 229.318 379.707 216.041C379.707 216.041 392.035 204.326 405.596 217.994C420.081 232.443 441.039 212.917 414.534 179.724C414.534 179.724 433.95 159.808 455.833 190.658C471.859 212.917 500.214 199.249 478.64 149.264C457.374 98.8885 506.07 71.5529 506.07 71.5529C506.07 71.5529 496.516 107.48 511.926 130.91C531.034 159.417 558.156 140.673 554.458 120.366C554.458 120.366 581.888 137.158 558.465 186.753C535.349 236.348 613.633 240.643 602.846 176.209C602.846 176.209 624.728 179.333 625.961 203.545C627.194 227.756 653.391 235.176 666.028 209.403C678.664 183.629 662.637 134.034 646.919 125.834C646.919 125.834 662.329 104.356 683.903 122.319C693.766 130.52 701.163 121.538 699.005 104.356C697.156 89.5163 681.746 76.6295 681.746 76.6295C681.746 76.6295 730.442 66.4762 731.058 122.71C731.675 184.8 751.092 176.99 754.174 175.819C766.194 171.914 759.413 149.264 759.413 149.264C759.413 149.264 778.522 156.684 778.522 184.41C779.446 210.965 819.513 220.337 832.149 159.027Z" fill="#262626"/>
<path d="M1206 107.78V159.718L823.52 301.473L809.959 202.674C809.959 202.674 831.225 187.835 823.52 144.488C823.52 144.488 842.937 137.459 856.806 181.977C870.367 226.495 940.637 210.484 926.768 128.477C926.768 128.477 945.26 129.649 949.883 158.937C954.506 188.225 975.156 190.959 986.868 181.587C998.58 172.214 993.648 143.707 981.628 137.85C981.628 137.85 987.176 119.886 1002.28 128.868C1017.38 137.459 1031.25 153.47 1047.58 142.536C1067.93 128.477 1051.59 91.3791 1080.56 75.3682C1080.56 75.3682 1074.09 112.076 1100.59 113.638C1135.42 115.591 1135.73 56.6238 1104.29 51.9377C1104.29 51.9377 1121.86 19.5254 1147.44 38.6604C1176.1 60.5289 1146.52 119.496 1174.87 119.886C1196.45 119.886 1190.28 87.0835 1190.28 87.0835C1190.28 87.0835 1200.76 91.7696 1206 107.78Z" fill="#262626"/>
<path d="M102.323 123.791C102.323 123.791 74.5851 69.5106 120.199 33.1932C120.199 33.1932 149.787 58.9668 126.98 84.7404C104.173 110.514 102.323 123.791 102.323 123.791Z" fill="#262626"/>
<path d="M523.945 104.266C523.945 104.266 512.542 38.2699 557.54 28.8976C557.54 28.8976 564.937 63.2624 543.67 81.6164C522.404 99.9703 523.945 104.266 523.945 104.266Z" fill="#262626"/>
<path d="M784.378 156.204C784.378 156.204 804.719 111.686 773.591 91.7696C773.591 91.7696 761.879 114.419 774.207 133.945C786.535 153.861 784.378 156.204 784.378 156.204Z" fill="#262626"/>
<path d="M1043.27 101.923C1043.27 101.923 1042.34 76.9303 1060.22 60.5289C1078.1 44.1275 1074.71 3.90509 1053.75 0C1053.75 0 1054.67 13.6678 1046.97 21.478C1039.26 29.2882 1011.22 62.4814 1043.27 101.923Z" fill="#262626"/>
<path d="M913.207 151.517C914.748 152.299 915.365 113.248 901.495 99.9703C901.804 100.361 875.914 131.992 913.207 151.517Z" fill="#262626"/>
<path d="M610.552 140.583C608.702 140.193 607.778 166.357 624.421 172.214C624.421 172.214 633.051 147.222 610.552 140.583Z" fill="#262626"/>
<path d="M923.377 108.561C924.302 110.514 940.328 94.1126 932.931 74.5872C932.931 74.5872 912.59 83.1784 923.377 108.561Z" fill="#262626"/>
<path d="M150.095 59.3574C150.095 61.7004 170.436 57.4048 171.669 35.9268C171.669 35.9268 150.711 30.4597 150.095 59.3574Z" fill="#262626"/>
<path d="M322.396 340L1205.46 148V407H348.449L322.396 340Z" fill="#262626"/>
</svg>
